<?xml version="1.0" encoding="utf-8"?>
<svg contentScriptType="text/ecmascript" xmlns:xlink="http://www.w3.org/1999/xlink" zoomAndPan="magnify" contentStyleType="text/css" viewBox="37.99999999999997 63.33333333333337 877.0 501.66666666666663" xmlns:cacoo="http://cacoo.com/" preserveAspectRatio="xMidYMin meet" xmlns="http://www.w3.org/2000/svg" version="1.1"><defs><marker refX="14.0" refY="7.0" markerUnits="userSpaceOnUse" orient="auto" id="id8" markerHeight="14.0" viewBox="0 0 14.0 14.0" preserveAspectRatio="xMidYMid meet" markerWidth="14.0" overflow="visible"><path fill="#000000" d="M7.0 3.5 L14.0 7.0 L7.0 10.5z" stroke-width="2.0" stroke-linejoin="round" stroke-linecap="round" stroke="#000000"/></marker><marker refX="0.0" refY="7.0" markerUnits="userSpaceOnUse" orient="auto" id="id9" markerHeight="14.0" viewBox="0 0 14.0 14.0" preserveAspectRatio="xMidYMid meet" markerWidth="14.0" overflow="visible"><path fill="#000000" d="M7.0 3.5 L0 7.0 L7.0 10.5z" stroke-width="2.0" stroke-linejoin="round" stroke-linecap="round" stroke="#000000"/></marker><marker refX="14.0" refY="7.0" markerUnits="userSpaceOnUse" orient="auto" id="id11" markerHeight="14.0" viewBox="0 0 14.0 14.0" preserveAspectRatio="xMidYMid meet" markerWidth="14.0" overflow="visible"><path fill="#000000" d="M7.0 3.5 L14.0 7.0 L7.0 10.5z" stroke-width="2.0" stroke-linejoin="round" stroke-linecap="round" stroke="#000000"/></marker><marker refX="14.0" refY="7.0" markerUnits="userSpaceOnUse" orient="auto" id="id14" markerHeight="14.0" viewBox="0 0 14.0 14.0" preserveAspectRatio="xMidYMid meet" markerWidth="14.0" overflow="visible"><path fill="#000000" d="M7.0 3.5 L14.0 7.0 L7.0 10.5z" stroke-width="2.0" stroke-linejoin="round" stroke-linecap="round" stroke="#000000"/></marker><marker refX="14.0" refY="7.0" markerUnits="userSpaceOnUse" orient="auto" id="id16" markerHeight="14.0" viewBox="0 0 14.0 14.0" preserveAspectRatio="xMidYMid meet" markerWidth="14.0" overflow="visible"><path fill="#000000" d="M7.0 3.5 L14.0 7.0 L7.0 10.5z" stroke-width="2.0" stroke-linejoin="round" stroke-linecap="round" stroke="#000000"/></marker><marker refX="0.0" refY="7.0" markerUnits="userSpaceOnUse" orient="auto" id="id17" markerHeight="14.0" viewBox="0 0 14.0 14.0" preserveAspectRatio="xMidYMid meet" markerWidth="14.0" overflow="visible"><path fill="#000000" d="M7.0 3.5 L0 7.0 L7.0 10.5z" stroke-width="2.0" stroke-linejoin="round" stroke-linecap="round" stroke="#000000"/></marker><marker refX="14.0" refY="7.0" markerUnits="userSpaceOnUse" orient="auto" id="id18" markerHeight="14.0" viewBox="0 0 14.0 14.0" preserveAspectRatio="xMidYMid meet" markerWidth="14.0" overflow="visible"><path fill="#000000" d="M7.0 3.5 L14.0 7.0 L7.0 10.5z" stroke-width="2.0" stroke-linejoin="round" stroke-linecap="round" stroke="#000000"/></marker><marker refX="0.0" refY="7.0" markerUnits="userSpaceOnUse" orient="auto" id="id24" markerHeight="14.0" viewBox="0 0 14.0 14.0" preserveAspectRatio="xMidYMid meet" markerWidth="14.0" overflow="visible"><path fill="none" d="M7.0 3.5 L0 7.0 L7.0 10.5" stroke-width="2.0" stroke-linejoin="round" stroke-linecap="round" stroke="#000000"/></marker><marker refX="14.0" refY="7.0" markerUnits="userSpaceOnUse" orient="auto" id="id25" markerHeight="14.0" viewBox="0 0 14.0 14.0" preserveAspectRatio="xMidYMid meet" markerWidth="14.0" overflow="visible"><path fill="none" d="M7.0 3.5 L14.0 7.0 L7.0 10.5" stroke-width="2.0" stroke-linejoin="round" stroke-linecap="round" stroke="#000000"/></marker><marker refX="0.0" refY="7.0" markerUnits="userSpaceOnUse" orient="auto" id="id27" markerHeight="14.0" viewBox="0 0 14.0 14.0" preserveAspectRatio="xMidYMid meet" markerWidth="14.0" overflow="visible"><path fill="#000000" d="M7.0 3.5 L0 7.0 L7.0 10.5z" stroke-width="2.0" stroke-linejoin="round" stroke-linecap="round" stroke="#000000"/></marker><marker refX="14.0" refY="7.0" markerUnits="userSpaceOnUse" orient="auto" id="id28" markerHeight="14.0" viewBox="0 0 14.0 14.0" preserveAspectRatio="xMidYMid meet" markerWidth="14.0" overflow="visible"><path fill="#000000" d="M7.0 3.5 L14.0 7.0 L7.0 10.5z" stroke-width="2.0" stroke-linejoin="round" stroke-linecap="round" stroke="#000000"/></marker><marker refX="0.0" refY="7.0" markerUnits="userSpaceOnUse" orient="auto" id="id29" markerHeight="14.0" viewBox="0 0 14.0 14.0" preserveAspectRatio="xMidYMid meet" markerWidth="14.0" overflow="visible"><path fill="#000000" d="M7.0 3.5 L0 7.0 L7.0 10.5z" stroke-width="2.0" stroke-linejoin="round" stroke-linecap="round" stroke="#000000"/></marker><marker refX="14.0" refY="7.0" markerUnits="userSpaceOnUse" orient="auto" id="id30" markerHeight="14.0" viewBox="0 0 14.0 14.0" preserveAspectRatio="xMidYMid meet" markerWidth="14.0" overflow="visible"><path fill="#000000" d="M7.0 3.5 L14.0 7.0 L7.0 10.5z" stroke-width="2.0" stroke-linejoin="round" stroke-linecap="round" stroke="#000000"/></marker><marker refX="14.0" refY="7.0" markerUnits="userSpaceOnUse" orient="auto" id="id35" markerHeight="14.0" viewBox="0 0 14.0 14.0" preserveAspectRatio="xMidYMid meet" markerWidth="14.0" overflow="visible"><path fill="#000000" d="M7.0 3.5 L14.0 7.0 L7.0 10.5z" stroke-width="2.0" stroke-linejoin="round" stroke-linecap="round" stroke="#000000"/></marker></defs><g><g transform="translate(403.0 352.0)"><path fill="none" d="M300.0 135.00000000000009 Q300.0 150.00000000000009 285.0 150.00000000000009 L15.0 150.00000000000009 Q0.0 150.00000000000009 0.0 135.00000000000009 L0.0 15.0 Q0.0 0.0 15.0 0.0 L285.0 0.0 Q300.0 0.0 300.0 15.0 L300.0 135.00000000000009 L300.0 135.00000000000009z" stroke-dasharray="6.0 6.0" stroke-width="2.0" stroke-linejoin="round" stroke="#5389d6"/><g transform="translate(1.0 1.0)"><clipPath id="id0"><path d="M0 0 L298.0 0 L298.0 148.0 L0 148.0z"/></clipPath><text font-size="12" clip-path="url(#id0)" text-decoration="none" fill="#000000" font-family="Arial,Arial" font-style="normal" font-weight="normal"/></g></g><g transform="translate(351.0 200.0)"><path fill="none" d="M399.9999999999998 334.99999999999994 Q399.9999999999998 349.99999999999994 384.9999999999998 349.99999999999994 L15.0 349.99999999999994 Q0.0 349.99999999999994 0.0 334.99999999999994 L0.0 15.0 Q0.0 0.0 15.0 0.0 L384.9999999999998 0.0 Q399.9999999999998 0.0 399.9999999999998 15.0 L399.9999999999998 334.99999999999994 L399.9999999999998 334.99999999999994z" stroke-dasharray="6.0 6.0" stroke-width="2.0" stroke-linejoin="round" stroke="#ffbf00"/><g transform="translate(1.0 1.0)"><clipPath id="id1"><path d="M0 0 L398.0 0 L398.0 348.0 L0 348.0z"/></clipPath><text font-size="12" clip-path="url(#id1)" text-decoration="none" fill="#000000" font-family="Arial,Arial" font-style="normal" font-weight="normal"/></g></g><g transform="translate(802.0 200.0)"><path fill="none" d="M97.99999999999997 135.00000000000006 Q97.99999999999997 150.00000000000006 82.99999999999997 150.00000000000006 L15.0 150.00000000000006 Q0.0 150.00000000000006 0.0 135.00000000000006 L0.0 15.0 Q0.0 0.0 15.0 0.0 L82.99999999999997 0.0 Q97.99999999999997 0.0 97.99999999999997 15.0 L97.99999999999997 135.00000000000006 L97.99999999999997 135.00000000000006z" stroke-dasharray="6.0 6.0" stroke-width="2.0" stroke-linejoin="round" stroke="#dc0800"/><g transform="translate(1.0 1.0)"><clipPath id="id2"><path d="M0 0 L96.0 0 L96.0 148.0 L0 148.0z"/></clipPath><text font-size="12" clip-path="url(#id2)" text-decoration="none" fill="#000000" font-family="Arial,Arial" font-style="normal" font-weight="normal"/></g></g><g transform="translate(585.0 394.9940037727356)"><g transform="translate(17.303500652313232 0.0)"><path fill="#6f2d6e" fill-opacity="1.0" d="M49.324002265930176 9.537999629974365 Q47.0968713760376 15.662999629974365 24.661999702453613 15.662999629974365 Q2.9746456146240234 15.662999629974365 0.0 9.317999362945557 L0.024999618530273438 9.287999629974365 L0.03799915313720703 52.4549994468689 L0.012999534606933594 52.48499822616577 Q0.012999534606933594 55.49574422836304 7.232499122619629 57.62836980819702 Q14.4553804397583 59.7619948387146 24.66100025177002 59.7619948387146 Q34.86625385284424 59.7619948387146 42.090500831604004 57.62799596786499 Q49.311001777648926 55.49510335922241 49.311001777648926 52.484994411468506 L49.311001777648926 52.484994411468506 L49.337002754211426 52.45499563217163 L49.350003242492676 9.506993770599365 L49.324002265930176 9.537999629974365" cacoo:lk="10006-10221-0.0-55871" stroke="none"/><path fill="#702d6e" fill-opacity="1.0" d="M49.392998695373535 6.370999813079834 Q49.392998695373535 3.7284369468688965 42.17249774932861 1.8636250495910645 Q34.956589698791504 0.0 24.743000984191895 0.0 Q14.529601097106934 0.0 7.314499855041504 1.8636250495910645 Q0.0950002670288086 3.7283873558044434 0.0950002670288086 6.370999813079834 Q0.0950002670288086 9.00745439529419 7.314499855041504 10.87524938583374 Q14.537688255310059 12.744000911712646 24.743000984191895 12.744000911712646 Q34.94850254058838 12.744000911712646 42.17249774932861 10.87524938583374 Q49.392998695373535 9.007404804229736 49.392998695373535 6.370999813079834 L49.392998695373535 6.370999813079834" cacoo:lk="10006-10221-0.0-55871" stroke="none"/></g><g transform="translate(0.0 62.7619948387146)"><clipPath id="id3"><path d="M0 0 L84.0 0 L84.0 30.0 L0 30.0z"/></clipPath><text font-size="12" clip-path="url(#id3)" text-decoration="none" fill="#000000" cacoo:lk="10006-10221-0.0-55871" font-family="Arial,Arial" font-style="normal" font-weight="bold"><tspan x="21.0" xml:space="preserve" y="13.0" textLength="41.0">MySQL</tspan></text><text font-size="12" clip-path="url(#id3)" text-decoration="none" fill="#000000" cacoo:lk="10006-10221-0.0-55871" font-family="Arial,Arial" font-style="normal" font-weight="normal"/><text font-size="12" clip-path="url(#id3)" text-decoration="none" fill="#000000" cacoo:lk="10006-10221-0.0-55871" font-family="Arial,Arial" font-style="normal" font-weight="bold"><tspan x="22.0" xml:space="preserve" y="27.0" textLength="39.0">SLAVE</tspan></text><text font-size="12" clip-path="url(#id3)" text-decoration="none" fill="#000000" cacoo:lk="10006-10221-0.0-55871" font-family="Arial,Arial" font-style="normal" font-weight="normal"/></g><g transform="translate(18.60449981689453 16.347994327545166)"><clipPath id="id4"><path d="M0 0 L46.79100036621094 0 L46.79100036621094 43.414000511169434 L0 43.414000511169434z"/></clipPath><text font-size="12" clip-path="url(#id4)" text-decoration="none" fill="#ffffff" cacoo:lk="10006-10221-0.0-55871" font-family="Arial,Arial" font-style="normal" font-weight="bold"/></g></g><g transform="translate(434.0 393.7559986114502)"><g transform="translate(17.303500652313232 0.0)"><path fill="#6f2d6e" fill-opacity="1.0" d="M49.324002265930176 9.537999629974365 Q47.0968713760376 15.662999629974365 24.661999702453613 15.662999629974365 Q2.9746456146240234 15.662999629974365 0.0 9.317999362945557 L0.024999618530273438 9.287999629974365 L0.03799915313720703 52.4549994468689 L0.012999534606933594 52.48499822616577 Q0.012999534606933594 55.49574422836304 7.232499122619629 57.62836980819702 Q14.4553804397583 59.7619948387146 24.66100025177002 59.7619948387146 Q34.86625385284424 59.7619948387146 42.090500831604004 57.62799596786499 Q49.311001777648926 55.49510335922241 49.311001777648926 52.484994411468506 L49.311001777648926 52.484994411468506 L49.337002754211426 52.45499563217163 L49.350003242492676 9.506993770599365 L49.324002265930176 9.537999629974365" cacoo:lk="10006-10221-0.0-55871" stroke="none"/><path fill="#702d6e" fill-opacity="1.0" d="M49.392998695373535 6.370999813079834 Q49.392998695373535 3.7284369468688965 42.17249774932861 1.8636250495910645 Q34.956589698791504 0.0 24.743000984191895 0.0 Q14.529601097106934 0.0 7.314499855041504 1.8636250495910645 Q0.0950002670288086 3.7283873558044434 0.0950002670288086 6.370999813079834 Q0.0950002670288086 9.00745439529419 7.314499855041504 10.87524938583374 Q14.537688255310059 12.744000911712646 24.743000984191895 12.744000911712646 Q34.94850254058838 12.744000911712646 42.17249774932861 10.87524938583374 Q49.392998695373535 9.007404804229736 49.392998695373535 6.370999813079834 L49.392998695373535 6.370999813079834" cacoo:lk="10006-10221-0.0-55871" stroke="none"/></g><g transform="translate(0.0 63.7619948387146)"><clipPath id="id5"><path d="M0 0 L84.0 0 L84.0 30.0 L0 30.0z"/></clipPath><text font-size="12" clip-path="url(#id5)" text-decoration="none" fill="#000000" cacoo:lk="10006-10221-0.0-55871" font-family="Arial,Arial" font-style="normal" font-weight="bold"><tspan x="21.0" xml:space="preserve" y="13.0" textLength="41.0">MySQL</tspan></text><text font-size="12" clip-path="url(#id5)" text-decoration="none" fill="#000000" cacoo:lk="10006-10221-0.0-55871" font-family="Arial,Arial" font-style="normal" font-weight="normal"/><text font-size="12" clip-path="url(#id5)" text-decoration="none" fill="#000000" cacoo:lk="10006-10221-0.0-55871" font-family="Arial,Arial" font-style="normal" font-weight="bold"><tspan x="17.0" xml:space="preserve" y="27.0" textLength="50.0">MASTER</tspan></text><text font-size="12" clip-path="url(#id5)" text-decoration="none" fill="#000000" cacoo:lk="10006-10221-0.0-55871" font-family="Arial,Arial" font-style="normal" font-weight="normal"/></g><g transform="translate(18.60449981689453 16.347994327545166)"><clipPath id="id6"><path d="M0 0 L46.79100036621094 0 L46.79100036621094 43.414000511169434 L0 43.414000511169434z"/></clipPath><text font-size="12" clip-path="url(#id6)" text-decoration="none" fill="#ffffff" cacoo:lk="10006-10221-0.0-55871" font-family="Arial,Arial" font-style="normal" font-weight="bold"/></g></g><g transform="translate(431.0 250.0)"><path fill="#6d6e70" fill-opacity="1.0" d="M63.63385166440689 0.0 L26.365281854357036 0.0 Q23.150996140071324 0.0 23.150996140071324 3.0000000000000004 L23.150996140071324 50.7559986114502 Q23.150996140071324 53.7559986114502 26.365281854357036 53.7559986114502 L63.63278082438876 53.7559986114502 Q66.84706653867448 53.7559986114502 66.84706653867448 50.7559986114502 L66.84706653867448 3.0000000000000004 Q66.84900385992866 0.0 63.63385166440689 0.0 M60.122783865247456 22.52400016784668 L29.875282900674 22.52400016784668 L29.875282900674 19.184999465942383 L60.122783865247456 19.184999465942383 L60.122783865247456 22.52400016784668 M60.122783865247456 16.873001098632812 L29.87635374069214 16.873001098632812 L29.87635374069214 13.534000396728517 L60.1227797780718 13.534000396728517 L60.1227797780718 16.873001098632812 M60.122783865247456 10.954000473022463 L29.87635374069214 10.954000473022463 L29.87635374069214 7.615000724792481 L60.1227797780718 7.615000724792481 L60.1227797780718 10.954000473022463" cacoo:lk="10006-10221-0.0-55871" stroke="none"/><g transform="translate(0.0 53.7559986114502)"><clipPath id="id7"><path d="M0 0 L90.0 0 L90.0 29.999999999999993 L0 29.999999999999993z"/></clipPath><text font-size="12" clip-path="url(#id7)" text-decoration="none" fill="#000000" cacoo:lk="10006-10221-0.0-55871" font-family="Times,&apos;Times Roman&apos;" font-style="normal" font-weight="normal"/></g></g><path fill="none" marker-end="url(#id8)" d="M476.6666666666667 313.7559986114502 L476.6666666666667 384.4226652781169" stroke-width="2.0" stroke-linejoin="round" stroke="#000000"/><path marker-start="url(#id9)" fill="none" d="M487.66666666666663 313.3333333333333 L595.6666666666666 389.3333333333333" stroke-width="2.0" stroke-linejoin="round" stroke="#000000"/><g transform="translate(448.33333333333337 80.66666666666669)"><clipPath id="id10"><path d="M0 0 L72.66666666666663 0 L72.66666666666663 29.333333333333314 L0 29.333333333333314z"/></clipPath><text font-size="16" clip-path="url(#id10)" text-decoration="none" fill="#000000" font-family="Arial,Arial" font-style="normal" font-weight="bold"><tspan x="2.0" xml:space="preserve" y="16.0" textLength="59.0">collecte</tspan></text><text font-size="16" clip-path="url(#id10)" text-decoration="none" fill="#000000" font-family="Arial,Arial" font-style="normal" font-weight="normal"/></g><path fill="none" marker-end="url(#id11)" d="M476.6666666666667 110.42266527811687 L476.6666666666667 238.42266527811688" stroke-width="2.0" stroke-linejoin="round" stroke="#000000"/><g transform="translate(584.0 249.24400138854983)"><path fill="#6d6e70" fill-opacity="1.0" d="M59.391594886779785 0.0 L24.607596397399902 0.0 Q21.607596397399902 0.0 21.607596397399902 3.0 L21.607596397399902 50.755998611450195 Q21.607596397399902 53.755998611450195 24.607596397399902 53.755998611450195 L59.39059543609619 53.755998611450195 Q62.39059543609619 53.755998611450195 62.39059543609619 50.755998611450195 L62.39059543609619 3.0 Q62.3924036026001 0.0 59.391594886779785 0.0 M56.11459827423096 22.52400016784668 L27.883597373962402 22.52400016784668 L27.883597373962402 19.184999465942383 L56.11459827423096 19.184999465942383 L56.11459827423096 22.52400016784668 M56.11459827423096 16.873001098632812 L27.884596824645996 16.873001098632812 L27.884596824645996 13.534000396728516 L56.11459445953369 13.534000396728516 L56.11459445953369 16.873001098632812 M56.11459827423096 10.954000473022461 L27.884596824645996 10.954000473022461 L27.884596824645996 7.6150007247924805 L56.11459445953369 7.6150007247924805 L56.11459445953369 10.954000473022461" cacoo:lk="10006-10221-0.0-55871" stroke="none"/><g transform="translate(0.0 53.755998611450195)"><clipPath id="id12"><path d="M0 0 L84.0 0 L84.0 30.0 L0 30.0z"/></clipPath><text font-size="12" clip-path="url(#id12)" text-decoration="none" fill="#000000" cacoo:lk="10006-10221-0.0-55871" font-family="Times,&apos;Times Roman&apos;" font-style="normal" font-weight="normal"/></g></g><g transform="translate(599.0 80.33333333333334)"><clipPath id="id13"><path d="M0 0 L70.0 0 L70.0 28.666666666666657 L0 28.666666666666657z"/></clipPath><text font-size="16" clip-path="url(#id13)" text-decoration="none" fill="#000000" font-family="Arial,Arial" font-style="normal" font-weight="bold"><tspan x="2.0" xml:space="preserve" y="16.0" textLength="62.0">tracking</tspan></text><text font-size="16" clip-path="url(#id13)" text-decoration="none" fill="#000000" font-family="Arial,Arial" font-style="normal" font-weight="normal"/></g><path fill="none" marker-end="url(#id14)" d="M626.6666666666667 111.42266527811687 L626.6666666666667 239.42266527811688" stroke-width="2.0" stroke-linejoin="round" stroke="#000000"/><g transform="translate(809.0 250.2440013885498)"><path fill="#6d6e70" fill-opacity="1.0" d="M59.391594886779785 0.0 L24.607596397399902 0.0 Q21.607596397399902 0.0 21.607596397399902 3.0 L21.607596397399902 50.755998611450195 Q21.607596397399902 53.755998611450195 24.607596397399902 53.755998611450195 L59.39059543609619 53.755998611450195 Q62.39059543609619 53.755998611450195 62.39059543609619 50.755998611450195 L62.39059543609619 3.0 Q62.3924036026001 0.0 59.391594886779785 0.0 M56.11459827423096 22.52400016784668 L27.883597373962402 22.52400016784668 L27.883597373962402 19.184999465942383 L56.11459827423096 19.184999465942383 L56.11459827423096 22.52400016784668 M56.11459827423096 16.873001098632812 L27.884596824645996 16.873001098632812 L27.884596824645996 13.534000396728516 L56.11459445953369 13.534000396728516 L56.11459445953369 16.873001098632812 M56.11459827423096 10.954000473022461 L27.884596824645996 10.954000473022461 L27.884596824645996 7.6150007247924805 L56.11459445953369 7.6150007247924805 L56.11459445953369 10.954000473022461" cacoo:lk="10006-10221-0.0-55871" stroke="none"/><g transform="translate(0.0 53.755998611450195)"><clipPath id="id15"><path d="M0 0 L84.0 0 L84.0 30.0 L0 30.0z"/></clipPath><text font-size="12" clip-path="url(#id15)" text-decoration="none" fill="#000000" cacoo:lk="10006-10221-0.0-55871" font-family="Times,&apos;Times Roman&apos;" font-style="normal" font-weight="normal"/></g></g><path fill="none" marker-end="url(#id16)" d="M663.0 279.0 L819.0 279.0" stroke-width="2.0" stroke-linejoin="round" stroke="#000000"/><path marker-start="url(#id17)" fill="none" d="M846.3333333333335 316.0 L655.6666666666667 393.3333333333334" stroke-width="2.0" stroke-linejoin="round" stroke="#000000"/><path fill="none" marker-end="url(#id18)" d="M851.6666666666667 110.42266527811687 L851.6666666666667 238.42266527811688" stroke-width="2.0" stroke-linejoin="round" stroke="#000000"/><g transform="translate(809.0 81.33333333333334)"><clipPath id="id19"><path d="M0 0 L90.0 0 L90.0 28.666666666666657 L0 28.666666666666657z"/></clipPath><text font-size="16" clip-path="url(#id19)" text-decoration="none" fill="#000000" font-family="Arial,Arial" font-style="normal" font-weight="bold"><tspan x="2.0" xml:space="preserve" y="16.0" textLength="84.0">back-office</tspan></text><text font-size="16" clip-path="url(#id19)" text-decoration="none" fill="#000000" font-family="Arial,Arial" font-style="normal" font-weight="normal"/></g><g transform="translate(214.99999999999997 134.00000000000003)"><clipPath id="id20"><path d="M0 0 L85.00000000000003 0 L85.00000000000003 46.0 L0 46.0z"/></clipPath><text font-size="14" clip-path="url(#id20)" text-decoration="none" fill="#262261" font-family="Arial,Arial" font-style="normal" font-weight="bold"><tspan x="2.0" xml:space="preserve" y="15.0" textLength="29.0">DNS</tspan></text><text font-size="14" clip-path="url(#id20)" text-decoration="none" fill="#262261" font-family="Arial,Arial" font-style="normal" font-weight="normal"/><text font-size="14" clip-path="url(#id20)" text-decoration="none" fill="#262261" font-family="Arial,Arial" font-style="normal" font-weight="bold"><tspan x="2.0" xml:space="preserve" y="31.0" textLength="78.0">round robin</tspan></text><text font-size="14" clip-path="url(#id20)" text-decoration="none" fill="#262261" font-family="Arial,Arial" font-style="normal" font-weight="normal"/></g><g transform="translate(80.99999999999997 250.00000000000003)"><path fill="#6d6e70" fill-opacity="1.0" d="M59.391594886779785 0.0 L24.607596397399902 0.0 Q21.607596397399902 0.0 21.607596397399902 3.0 L21.607596397399902 50.755998611450195 Q21.607596397399902 53.755998611450195 24.607596397399902 53.755998611450195 L59.39059543609619 53.755998611450195 Q62.39059543609619 53.755998611450195 62.39059543609619 50.755998611450195 L62.39059543609619 3.0 Q62.3924036026001 0.0 59.391594886779785 0.0 M56.11459827423096 22.52400016784668 L27.883597373962402 22.52400016784668 L27.883597373962402 19.184999465942383 L56.11459827423096 19.184999465942383 L56.11459827423096 22.52400016784668 M56.11459827423096 16.873001098632812 L27.884596824645996 16.873001098632812 L27.884596824645996 13.534000396728516 L56.11459445953369 13.534000396728516 L56.11459445953369 16.873001098632812 M56.11459827423096 10.954000473022461 L27.884596824645996 10.954000473022461 L27.884596824645996 7.6150007247924805 L56.11459445953369 7.6150007247924805 L56.11459445953369 10.954000473022461" cacoo:lk="10006-10221-0.0-55871" stroke="none"/><g transform="translate(0.0 53.755998611450195)"><clipPath id="id21"><path d="M0 0 L84.0 0 L84.0 30.0 L0 30.0z"/></clipPath><text font-size="12" clip-path="url(#id21)" text-decoration="none" fill="#000000" cacoo:lk="10006-10221-0.0-55871" font-family="Arial,Arial" font-style="normal" font-weight="normal"/></g></g><g transform="translate(179.99999999999997 250.00000000000003)"><path fill="#6d6e70" fill-opacity="1.0" d="M59.391594886779785 0.0 L24.607596397399902 0.0 Q21.607596397399902 0.0 21.607596397399902 3.0 L21.607596397399902 50.755998611450195 Q21.607596397399902 53.755998611450195 24.607596397399902 53.755998611450195 L59.39059543609619 53.755998611450195 Q62.39059543609619 53.755998611450195 62.39059543609619 50.755998611450195 L62.39059543609619 3.0 Q62.3924036026001 0.0 59.391594886779785 0.0 M56.11459827423096 22.52400016784668 L27.883597373962402 22.52400016784668 L27.883597373962402 19.184999465942383 L56.11459827423096 19.184999465942383 L56.11459827423096 22.52400016784668 M56.11459827423096 16.873001098632812 L27.884596824645996 16.873001098632812 L27.884596824645996 13.534000396728516 L56.11459445953369 13.534000396728516 L56.11459445953369 16.873001098632812 M56.11459827423096 10.954000473022461 L27.884596824645996 10.954000473022461 L27.884596824645996 7.6150007247924805 L56.11459445953369 7.6150007247924805 L56.11459445953369 10.954000473022461" cacoo:lk="10006-10221-0.0-55871" stroke="none"/><g transform="translate(0.0 53.755998611450195)"><clipPath id="id22"><path d="M0 0 L84.0 0 L84.0 30.0 L0 30.0z"/></clipPath><text font-size="12" clip-path="url(#id22)" text-decoration="none" fill="#000000" cacoo:lk="10006-10221-0.0-55871" font-family="Arial,Arial" font-style="normal" font-weight="normal"/></g></g><g transform="translate(129.99999999999997 116.00000000000003)"><path fill="#262261" fill-opacity="1.0" d="M41.999500036239624 0.0 Q30.125421285629272 0.0 21.729499578475952 8.652429051103335 Q13.333500146865845 17.30493672513825 13.333500146865845 29.542102667221805 Q13.333500146865845 41.779270574878645 21.729499578475952 50.43177530055364 Q30.125421285629272 59.08420533444361 41.999500036239624 59.08420533444361 Q53.874255895614624 59.08420533444361 62.270374059677124 50.43177530055364 Q70.66649985313416 41.779353128956814 70.66649985313416 29.542102667221805 Q70.66649985313416 17.30485810220667 62.270374059677124 8.652429051103335 Q53.87425208091736 0.0 41.999500036239624 0.0 M59.999500036239624 20.267364267554886 L50.999500036239624 20.267364267554886 L50.999500036239624 18.4216909486311 L48.20450186729431 22.05429642871932 L46.9195020198822 20.182860340688887 L34.23550009727478 28.511576178369925 L44.999500036239624 28.511576178369925 L44.999500036239624 26.530903354770604 L50.999500036239624 28.84340426111829 L50.999500036239624 25.419996711814285 L59.999500036239624 25.419996711814285 L59.999500036239624 34.69473511148121 L50.999500036239624 34.69473511148121 L50.999500036239624 31.270297601773457 L44.999500036239624 33.583828468524885 L44.999500036239624 31.60315564492556 L34.2375009059906 31.60315564492556 L47.03650259971619 39.930841522202854 L48.20450186729431 37.99551447439435 L50.999500036239624 41.69304087466439 L50.999500036239624 39.847367555740604 L59.999500036239624 39.847367555740604 L59.999500036239624 49.12210595540753 L50.999500036239624 49.12210595540753 L50.999500036239624 45.414272088806875 L44.78150153160095 43.87260612829061 L45.631500005722046 42.01250550142125 L29.999500036239624 31.591818218191218 L29.999500036239624 37.786314578036844 L19.999500036239624 37.786314578036844 L19.999500036239624 22.32841724525865 L29.999500036239624 22.32841724525865 L29.999500036239624 28.521883644700527 L45.74750113487244 18.101200292617083 L44.782500982284546 16.242129626151456 L50.999500036239624 14.69942977408487 L50.999500036239624 10.992625867887966 L59.999500036239624 10.992625867887966 L59.999500036239624 20.267364267554886" cacoo:lk="10006-10221-0.0-55871" stroke="none"/><g transform="translate(0.0 59.08420533444361)"><clipPath id="id23"><path d="M0 0 L84.0 0 L84.0 30.91579466555639 L0 30.91579466555639z"/></clipPath><text font-size="12" clip-path="url(#id23)" text-decoration="none" fill="#000000" cacoo:lk="10006-10221-0.0-55871" font-family="Times,&apos;Times Roman&apos;" font-style="normal" font-weight="normal"/></g></g><path fill="none" stroke-linejoin="round" d="M148.99999999999991 279.0 L195.60759639739987 279.04315451324044" stroke="#000000" marker-start="url(#id24)" stroke-width="2.0" marker-end="url(#id25)"/><g transform="translate(145.99999999999997 78.33333333333337)"><clipPath id="id26"><path d="M0 0 L70.0 0 L70.0 28.666666666666657 L0 28.666666666666657z"/></clipPath><text font-size="16" clip-path="url(#id26)" text-decoration="none" fill="#000000" font-family="Arial,Arial" font-style="normal" font-weight="bold"><tspan x="2.0" xml:space="preserve" y="16.0" textLength="46.0">media</tspan></text><text font-size="16" clip-path="url(#id26)" text-decoration="none" fill="#000000" font-family="Arial,Arial" font-style="normal" font-weight="normal"/></g><path fill="none" stroke-linejoin="round" d="M123.99999999999993 239.33333333333334 L160.0 183.33333333333331" stroke="#000000" marker-start="url(#id27)" stroke-width="2.0" marker-end="url(#id28)"/><path fill="none" stroke-linejoin="round" d="M223.6666666666666 238.00000000000003 L182.33333333333334 183.33333333333334" stroke="#000000" marker-start="url(#id29)" stroke-width="2.0" marker-end="url(#id30)"/><g transform="translate(52.99999999999997 200.00000000000003)"><path fill="none" d="M250.00000000000003 135.00000000000009 Q250.00000000000003 150.00000000000009 235.00000000000003 150.00000000000009 L15.0 150.00000000000009 Q0.0 150.00000000000009 0.0 135.00000000000009 L0.0 15.0 Q0.0 0.0 15.0 0.0 L235.00000000000003 0.0 Q250.00000000000003 0.0 250.00000000000003 15.0 L250.00000000000003 135.00000000000009 L250.00000000000003 135.00000000000009z" stroke-dasharray="6.0 6.0" stroke-width="2.0" stroke-linejoin="round" stroke="#51b11d"/><g transform="translate(1.0 1.0)"><clipPath id="id31"><path d="M0 0 L248.00000000000003 0 L248.00000000000003 147.99999999999997 L0 147.99999999999997z"/></clipPath><text font-size="12" clip-path="url(#id31)" text-decoration="none" fill="#000000" font-family="Arial,Arial" font-style="normal" font-weight="normal"/></g></g><g transform="translate(433.0 326.0)"><clipPath id="id32"><path d="M0 0 L51.0 0 L51.0 17.0 L0 17.0z"/></clipPath><text font-size="12" clip-path="url(#id32)" text-decoration="none" fill="#000000" font-family="Arial,Arial" font-style="normal" font-weight="bold"><tspan x="2.0" xml:space="preserve" y="13.0" textLength="29.0">Write</tspan></text><text font-size="12" clip-path="url(#id32)" text-decoration="none" fill="#000000" font-family="Arial,Arial" font-style="normal" font-weight="normal"/></g><g transform="translate(537.0 326.0)"><clipPath id="id33"><path d="M0 0 L51.0 0 L51.0 17.0 L0 17.0z"/></clipPath><text font-size="12" clip-path="url(#id33)" text-decoration="none" fill="#000000" font-family="Arial,Arial" font-style="normal" font-weight="bold"><tspan x="2.0" xml:space="preserve" y="13.0" textLength="29.0">Read</tspan></text><text font-size="12" clip-path="url(#id33)" text-decoration="none" fill="#000000" font-family="Arial,Arial" font-style="normal" font-weight="normal"/></g><g transform="translate(702.0 258.0)"><clipPath id="id34"><path d="M0 0 L51.0 0 L51.0 17.0 L0 17.0z"/></clipPath><text font-size="12" clip-path="url(#id34)" text-decoration="none" fill="#000000" font-family="Arial,Arial" font-style="normal" font-weight="bold"><tspan x="2.0" xml:space="preserve" y="13.0" textLength="29.0">Stats</tspan></text><text font-size="12" clip-path="url(#id34)" text-decoration="none" fill="#000000" font-family="Arial,Arial" font-style="normal" font-weight="normal"/></g><path fill="none" marker-end="url(#id35)" d="M508.0 431.0 L594.0 431.0" stroke-width="2.0" stroke-linejoin="round" stroke="#000000"/><g transform="translate(513.0 407.0)"><clipPath id="id36"><path d="M0 0 L71.0 0 L71.0 17.0 L0 17.0z"/></clipPath><text font-size="12" clip-path="url(#id36)" text-decoration="none" fill="#000000" font-family="Arial,Arial" font-style="normal" font-weight="bold"><tspan x="2.0" xml:space="preserve" y="13.0" textLength="64.0">Réplication</tspan></text><text font-size="12" clip-path="url(#id36)" text-decoration="none" fill="#000000" font-family="Arial,Arial" font-style="normal" font-weight="normal"/></g><g transform="translate(154.0 257.0)"><clipPath id="id37"><path d="M0 0 L40.0 0 L40.0 13.0 L0 13.0z"/></clipPath><text font-size="10" clip-path="url(#id37)" text-decoration="none" fill="#000000" font-family="Arial,Arial" font-style="normal" font-weight="bold"><tspan x="2.0" xml:space="preserve" y="11.0" textLength="35.0">RSYNC</tspan></text><text font-size="10" clip-path="url(#id37)" text-decoration="none" fill="#000000" font-family="Arial,Arial" font-style="normal" font-weight="normal"/></g></g></svg>